<svg width="148" height="148" viewBox="0 0 148 148" fill="none" xmlns="http://www.w3.org/2000/svg">
<path d="M45.525 142H12C10.4087 142 8.88262 141.368 7.7574 140.243C6.63218 139.117 6.00004 137.591 6.00004 136V102.475C5.9973 101.696 6.14826 100.924 6.44426 100.203C6.74026 99.4825 7.17549 98.8272 7.72504 98.275L97.725 8.27495C98.2833 7.70804 98.9488 7.25784 99.6827 6.95054C100.417 6.64324 101.204 6.48499 102 6.48499C102.796 6.48499 103.583 6.64324 104.317 6.95054C105.051 7.25784 105.717 7.70804 106.275 8.27495L139.725 41.725C140.292 42.2833 140.742 42.9487 141.049 43.6827C141.357 44.4166 141.515 45.2043 141.515 46C141.515 46.7956 141.357 47.5833 141.049 48.3173C140.742 49.0512 140.292 49.7167 139.725 50.275L49.725 140.275C49.1728 140.825 48.5175 141.26 47.7968 141.556C47.0761 141.852 46.3041 142.003 45.525 142V142Z" stroke="#FFFFFF" stroke-width="12" stroke-linecap="round" stroke-linejoin="round"/>
<path d="M78 28L120 70" stroke="#FFFFFF" stroke-width="12" stroke-linecap="round" stroke-linejoin="round"/>
</svg>
