<svg xmlns="http://www.w3.org/2000/svg" width="53" height="54" fill="none"><path fill="#2581d7" fill-rule="evenodd" d="m12.532.02.142.017.625 1.408 1.994 4.495a200.889 200.889 0 0 1 1.359 3.098c-.013.013-2.07.009-5.919-.014l-2.897-.017-.337-.713C5.76 4.612 5.908 4.948 5.99 4.874c.045-.042.16-.049 1.145-.073a62.31 62.31 0 0 0 1.099-.031c.003-.003-.392-.883-.878-1.956a330.29 330.29 0 0 1-.97-2.157 9.802 9.802 0 0 0-.187-.408c-.055-.11-.1-.212-.1-.226 0-.028 6.196-.032 6.433-.003Zm5.942.046c2.238.009 4.318.023 4.623.032l.555.016.585 1.318 1.974 4.452c.765 1.723 1.383 3.142 1.373 3.152-.041.041-10.344.02-10.385-.021-.02-.021-.476-1.027-1.011-2.235-2.315-5.223-2.909-6.558-2.96-6.657l-.054-.106.616.016a509.7 509.7 0 0 0 4.684.033Zm11.409.063c3.427.021 4.606.036 4.629.058.017.017.579 1.269 1.25 2.782.67 1.513 1.548 3.49 1.949 4.392l.728 1.641-.415.016c-.723.028-7.68.052-8.826.03-1.07-.02-1.098-.021-1.107-.072-.008-.046-1.406-3.21-3.202-7.247a120.27 120.27 0 0 1-.696-1.583c-.017-.055-.38-.054 5.69-.017Zm8.552.05h1.73l.295.55c.162.303.31.573.33.6.048.066.035.089.325-.578l.24-.552 2.51.01c2.686.013 2.592.008 2.592.139 0 .033-.5 1.109-1.11 2.39-.61 1.283-1.105 2.34-1.098 2.35.015.025.465.049 1.226.064 1.027.021 1.137.037 1.137.17 0 .027-.304.639-.675 1.36L45 8.503l-.26.507-1.125.02c-1.582.027-4.627-.002-4.655-.046-.011-.018-.351-.777-.755-1.686A5953.78 5953.78 0 0 1 35.07.232l-.038-.088.835.017c.46.01 1.615.018 2.567.018Zm-28.898.91.768 1.731.639 1.44h.216c.162 0 .213-.007.203-.031-.062-.157-1.27-2.864-1.378-3.085a2.784 2.784 0 0 1-.14-.317c0-.018-.077-.028-.218-.028H9.41l.128.29Zm9.843.919c0 .012.111.27.247.575.136.305.312.705.39.89.079.184.188.435.242.555.409.913.629 1.388.657 1.422.018.02.245.515.503 1.098.547 1.233.462 1.102.707 1.092l.196-.007-.666-1.499c-.737-1.657-.829-1.859-.919-2.028a6.891 6.891 0 0 1-.164-.349 36.332 36.332 0 0 0-.622-1.367 1.997 1.997 0 0 1-.11-.241l-.06-.162h-.2c-.111 0-.201.01-.201.02Zm10.8.05a24 24 0 0 0 .338.782c.186.42.361.82.39.891.027.071.095.228.15.35l.362.8c.145.32.278.599.296.62.018.022.245.516.503 1.098.547 1.233.462 1.103.707 1.093l.196-.008-.666-1.498c-.737-1.657-.829-1.859-.919-2.028a6.83 6.83 0 0 1-.164-.35 35.49 35.49 0 0 0-.622-1.366 1.962 1.962 0 0 1-.109-.242l-.062-.161h-.2c-.11 0-.2.009-.2.02ZM11.348 5.16l.706 1.59.696 1.567h.201c.111 0 .202-.01.202-.022 0-.012-.312-.724-.693-1.582l-.692-1.56-.214-.008c-.12-.004-.21.002-.206.015Zm41.388 4.204c.035.043.034.05-.063.504a8.22 8.22 0 0 0-.095.516.752.752 0 0 1-.045.207c-.01.007-.052.135-.09.284-.274 1.033-.875 1.876-1.835 2.572-.07.052-.075.069-.135.517-.156 1.17-.522 1.777-1.43 2.368a3.272 3.272 0 0 1-.288.176c-.046 0-.18.33-.24.594-.074.318-.152.494-.428.969-.41.704-.877 1.146-1.591 1.506-.142.071-.273.154-.29.184l-.033.054h-3.165c-2.093 0-3.165.009-3.165.026s-2.17.026-6.46.026h-6.459v-3.529l.474-.865 1.231-2.246c.74-1.352 1.3-2.369 1.579-2.876.317-.572.378-.688.423-.807l.047-.124 6.772.018c3.725.01 7.656.03 8.736.045 1.406.019 2.5.018 3.85-.003a67.567 67.567 0 0 1 2.161-.011c.271.017.276.017.307-.044.057-.106.17-.136.232-.061Zm-40.09.053c2.33.009 4.262.026 4.294.038a.252.252 0 0 0 .138 0c.043-.012 1.229-.031 2.635-.041l2.556-.02.133.265c.073.145.253.546.4.889.25.588.733 1.647 1.95 4.278l.519 1.122v3.92l-9.011-.01c-5.82-.007-9.075-.02-9.192-.037-1.372-.196-2.14-.84-2.677-2.246a5.776 5.776 0 0 0-.231-.54.536.536 0 0 1-.076-.225c0-.087-.014-.101-.252-.267-.614-.428-1.069-1.052-1.335-1.83a3.02 3.02 0 0 0-.098-.258 1.29 1.29 0 0 1-.064-.229 4.6 4.6 0 0 0-.113-.41c-.087-.265-.09-.288-.04-.337.03-.03 0-.056-.202-.169C.783 12.643.298 11.897.078 10.383L0 9.845l.046-.183.046-.183.246-.01c.135-.007 1.611-.025 3.28-.04 1.67-.016 3.06-.033 3.089-.038.028-.005.423-.004.878.001.455.006 2.732.017 5.061.025Zm13.841 7.226c.018 1.776.022 3.072.01 3.14l-.014.084h-.799v-1.505c0-.981.01-1.492.026-1.466.017.026.025-.046.025-.227v-.265h.75l.003.24ZM16.116 20.61c.072.152.385.85.695 1.55l.562 1.272h.203c.111 0 .203-.009.203-.02 0-.03-.874-1.997-.915-2.06-.026-.039-.29-.66-.421-.988-.01-.026.309-.032 1.546-.032h1.56l.073.149c.04.081.344.758.675 1.504l1.63 3.67a254.363 254.363 0 0 1 1.039 2.357c.012.043-.07.045-1.556.04l-1.568-.008-.674-1.524c-.371-.838-.677-1.528-.68-1.532a1.506 1.506 0 0 0-.212 0l-.207.008.136.31.669 1.51c.293.66.533 1.209.533 1.22 0 .037-2.888.026-2.912-.01-.012-.019-.784-1.757-1.716-3.864l-1.696-3.83h2.9l.133.278Zm8.025-.261 1.414.017.054.106c.042.081.674 1.48.74 1.636.01.026-.37.032-1.85.032-2.1 0-1.966-.013-1.966.194 0 .192.007.194.859.198.416.002 1.296.01 1.957.02l1.2.015.653 1.47c.36.809.654 1.48.654 1.492 0 .012-.937.022-2.082.022h-2.08l-.064.063c-.08.08-.081.173-.005.258l.058.066 2.188.017 2.189.018.453 1.02c.25.561.448 1.026.44 1.034-.007.007-1.258.014-2.779.015l-2.766.002-.55-1.24-1.46-3.294c-.5-1.13-.932-2.091-.958-2.137a21.783 21.783 0 0 1-.432-1.009c-.015-.037 1.746-.044 4.133-.015Zm4.863.144c.039.075.525 1.16 1.08 2.41l1.638 3.692c.346.78.626 1.422.621 1.427-.01.01-2.942.014-2.95.004a341.94 341.94 0 0 1-.537-1.209c-1.996-4.508-2.38-5.37-2.424-5.447a5.813 5.813 0 0 1-.19-.426 45.386 45.386 0 0 0-.192-.463l-.053-.123h2.936l.071.135Zm9.37-.112 1.204.015-.166.336c-.092.185-.339.697-.55 1.137-.21.44-.61 1.272-.889 1.848l-.506 1.046v.374l.664.007.664.006.59 1.357c.626 1.44.63 1.451.48 1.484-.13.029-3.743.032-3.78.004a1.209 1.209 0 0 1-.139-.26 5.62 5.62 0 0 0-.144-.31c-.024-.044-.127-.27-.231-.505l-.188-.426-.215-.007c-.167-.006-.21 0-.2.025l.186.421c.15.335.314.713.443 1.014l.036.085-1.428-.001h-1.428l-.522-1.182c-1.526-3.451-2.417-5.45-2.447-5.498a5.229 5.229 0 0 1-.178-.4 45.165 45.165 0 0 0-.195-.47l-.053-.123 3.894.003c2.141.002 4.436.011 5.098.02Zm-4.447.514c0 .03 1.497 3.4 1.522 3.423a.666.666 0 0 0 .217.013l.196-.007-.657-1.482a69.638 69.638 0 0 0-.705-1.563 1.922 1.922 0 0 1-.11-.243l-.062-.162h-.2c-.11 0-.2.01-.2.021Zm-8.634 10.489c.017 1.616.036 4.89.043 7.274l.013 4.335-.187-.106c-1.536-.873-2.927-1.025-4.496-.492-.207.07-.228.072-.25.032a2191.877 2191.877 0 0 1-3.386-7.342c-.174-.377-.863-1.87-1.53-3.32a463.855 463.855 0 0 0-1.256-2.712c-.154-.29-.191-.46-.108-.505.045-.024.81-.057 1.976-.085.157-.004 2.28-.01 4.718-.013l4.433-.005.03 2.939Zm1.18-1.796c-.008.629-.02 3.953-.03 7.388l-.015 6.244-.15.08c-.183.098-.202.098-.386 0l-.149-.08-.015-6.244c-.01-3.435-.022-6.76-.03-7.388l-.014-1.143h.802l-.013 1.143Zm9.39-1.042c.03.055.284.624.568 1.264l.515 1.163-1.938 4-2.76 5.693c-.56 1.156-.832 1.69-.856 1.683l-.32-.083c-1.409-.368-2.658-.177-4.063.62l-.187.107.013-4.335c.007-2.384.026-5.658.043-7.274l.03-2.94h8.904l.052.102Zm1.516-.024c.83.038.821-.132.075 1.405l-.286.59-.445-1.003a36.025 36.025 0 0 1-.445-1.026c0-.01.125-.013.278-.005l.823.04Zm1.726 2.586c.013.013-.27.592-.362.74-.033.052-.763-.623-.807-.746-.01-.029 1.141-.022 1.17.006Zm1.165 1.63c.009.008-.039.123-.105.253l-.122.237-.14-.137a4.735 4.735 0 0 1-.246-.262l-.105-.125.35.008c.193.005.359.016.368.025Zm-1.424.54c.012.012-.278.608-.361.74-.033.052-.763-.622-.808-.746-.01-.027 1.142-.022 1.169.005Zm-16.016 9.224c.834.079 1.672.414 2.82 1.13.415.258.318.265.9-.06.268-.149.493-.27.5-.27.007 0 .23-.109.493-.241 1.036-.519 1.784-.661 2.806-.532.239.03.86.173.877.203.007.01-.593 1.268-1.334 2.794a546.525 546.525 0 0 0-1.403 2.904c-.032.071-.206.431-.387.801-.182.37-.42.858-.53 1.085-.109.228-.526 1.089-.927 1.914-.4.825-.727 1.523-.727 1.552 0 .067-.13.19-.2.19-.092 0-.142-.072-.124-.178.014-.082-.034-.202-.4-.997l-3.785-8.21-.807-1.749.106-.04c.664-.244 1.477-.358 2.122-.297Zm-.392 4.431c-.017.046-.05.048-.068.004-.007-.02.008-.035.035-.037.031-.003.043.009.033.033Z" clip-rule="evenodd"/></svg>